<?xml version="1.0" encoding="utf-8"?>
<!-- Generator: Adobe Illustrator 15.0.2, SVG Export Plug-In . SVG Version: 6.00 Build 0)  -->
<!DOCTYPE svg PUBLIC "-//W3C//DTD SVG 1.1//EN" "http://www.w3.org/Graphics/SVG/1.1/DTD/svg11.dtd">
<svg version="1.1" id="Layer_1" xmlns="http://www.w3.org/2000/svg" xmlns:xlink="http://www.w3.org/1999/xlink" x="0px" y="0px"
	 width="512px" height="468.299px" viewBox="-0.328 0 512 468.299" enable-background="new -0.328 0 512 468.299"
	 xml:space="preserve">
<g>
	<path d="M42.448,85.552h426.447c23.625,0,42.776-19.151,42.776-42.775C511.672,19.151,492.521,0,468.896,0H42.448
		C18.823,0-0.328,19.151-0.328,42.776C-0.328,66.4,18.823,85.552,42.448,85.552z"/>
	<path d="M468.896,191.36H42.448c-23.625,0-42.776,19.148-42.776,42.776c0,23.618,19.151,42.775,42.776,42.775h426.447
		c23.625,0,42.776-19.151,42.776-42.775C511.672,210.509,492.521,191.36,468.896,191.36z"/>
	<path d="M468.896,382.747H42.448c-23.625,0-42.776,19.139-42.776,42.775c0,23.625,19.151,42.776,42.776,42.776h426.447
		c23.625,0,42.776-19.151,42.776-42.776C511.672,401.886,492.521,382.747,468.896,382.747z"/>
</g>
</svg>
